<svg width="331" height="331" viewBox="0 0 331 331" fill="none" xmlns="http://www.w3.org/2000/svg">
<g clip-path="url(#clip0_17706_178133)">
<path d="M153.257 0H177.916C179.897 0.823717 185.092 1.055 187.517 1.34717C199.653 2.8096 212.301 5.78548 223.769 10.0892C254.32 21.6858 280.815 41.9557 300 68.408C303.555 73.357 307.085 78.675 310.247 83.9222C310.815 85.1017 311.17 86.4102 311.758 87.5742C312.805 89.6497 314.165 91.6217 315.205 93.697C316.192 95.667 316.953 97.8335 317.853 99.8508C319.24 102.961 320.862 105.957 321.735 109.269C322.132 110.752 322.683 112.266 323.105 113.748C324.75 118.799 326.467 123.811 327.652 128.997C328.69 133.733 329.075 139.112 330.02 143.932C330.36 145.679 330.38 148.304 331 149.871V181.68L330.922 181.911C330.275 183.934 330.008 187.866 329.605 190.113C328.463 196.487 327.89 203.001 325.892 209.191C324.3 214.03 322.91 219.019 321.22 223.816C320.27 226.51 318.69 229.327 317.565 232.003C301.473 270.29 269.13 302.155 230.807 318.052C228.567 318.982 226.432 320.172 224.167 321.05C217.226 323.197 210.112 325.835 203.029 327.41C198.185 328.488 193.117 328.933 188.24 329.888C186.571 330.188 183.626 330.39 182.179 331H148.6C147.029 330.35 143.83 330.013 142.043 329.665C137.649 328.688 132.68 328.345 128.342 327.32C119.119 325.14 109.82 322.222 101.169 318.36C96.9305 316.47 93.2562 314.907 89.0987 312.772C49.2435 292.105 19.4984 256.128 6.69037 213.1C4.20562 205.029 2.6177 197.49 1.54627 189.122C1.30129 187.208 0.667655 179.377 0 178.191V153.236C0.668103 152.139 0.966855 146.223 1.15823 144.561C2.70085 131.162 5.97875 118.163 10.8681 105.603C11.4944 103.994 12.3216 102.316 13.0086 100.691C26.9665 67.5238 51.391 39.8333 82.5555 21.8433C104.941 9.0564 127.807 2.68033 153.128 0.0710338C153.171 0.047356 153.214 0.023678 153.257 0ZM120.639 197.924C134.207 211.981 146.463 227.055 167.502 227.092C180.785 227.116 190.083 223.281 199.671 213.755C203.726 209.876 211.129 201.2 215.512 198.113C216.216 198.664 216.903 199.19 217.575 199.782C227.395 208.806 233.214 218.382 246.124 223.729C284.678 239.696 320.44 198.118 301.087 162.044C297.107 154.627 291.52 150.032 285.76 144.156C280.278 138.469 274.728 132.849 269.108 127.299L256.27 114.49C252.902 111.083 249.617 107.795 246.153 104.404C234.045 92.5503 216.466 89.0418 200.637 94.7975C198.664 95.5153 194.222 97.2925 192.598 98.434C184.17 104.355 177.732 112.796 170.056 119.555C168.086 121.12 167.503 120.644 165.598 119.047C163.521 117.007 161.268 114.571 159.27 112.456C146.713 99.1653 137.615 91.5225 118.418 92.298C117.962 92.315 117.507 92.347 117.053 92.394C106.885 92.882 97.0005 97.9717 89.873 104.93C83.0628 111.58 76.2988 118.473 69.5813 125.219L51.646 143.215C48.098 146.772 43.9905 150.598 40.7335 154.331C25.55 171.831 26.5833 199.42 43.7225 215.3C58.121 228.64 78.7728 231.059 95.7565 221.138C102.855 216.991 109.191 208.269 115.565 202.951C117.324 201.484 118.745 199.43 120.639 197.924Z" fill="url(#paint0_linear_17706_178133)"/>
<path d="M118.135 106.094C124.226 105.163 133.553 107.544 138.36 111.423C140.629 113.255 142.972 115.71 145.07 117.793L157.671 130.483L178.533 151.346C182.738 155.538 187.077 159.736 191.135 164.102C192.575 165.651 194.259 168.873 195.313 170.745C198.565 176.52 198.938 186.079 196.975 192.344C195.714 195.621 193.185 200.787 190.785 203.294C189.197 204.953 184.523 208.891 182.669 209.777C177.056 212.459 170.283 214.148 164.084 213.085C161.081 212.57 157.84 211.351 154.935 210.353C149.951 208.294 143.274 201.112 139.527 197.342L109.698 167.408C104.246 162.008 98.4183 155.155 92.0098 151.161C86.763 147.89 79.9475 145.62 73.8238 145.089C72.5185 144.975 71.5553 145.327 70.7285 144.219C71.2345 142.038 80.4325 133.551 82.5805 131.389L94.2088 119.798C102.585 111.592 106.052 107.586 118.135 106.094Z" fill="url(#paint1_linear_17706_178133)"/>
<path d="M212.943 106.101C219.814 105.206 229.981 107.834 234.907 112.803C239.164 117.097 243.831 121.283 247.966 125.679C253.9 131.987 260.97 138.006 266.37 144.708C263.742 145.123 260.422 145.279 257.9 145.88C249.895 147.829 241.606 152.046 235.981 158.156C231.662 162.848 226.831 166.994 222.541 171.678C220.955 173.864 214.261 179.933 211.971 181.893C209.769 164.713 205.555 158.308 193.075 146.483C189.227 142.837 181.729 135.255 178.065 131.334C178.323 131.005 178.583 130.678 178.847 130.354C181.603 126.965 186.02 123.207 189.021 120.027C196.721 111.867 201.289 107.295 212.943 106.101Z" fill="url(#paint2_linear_17706_178133)"/>
<path d="M264.745 158.58C274.238 157.957 285.683 161.874 290.173 170.895C301.195 193.046 279.483 219.21 255.568 212.294C253.678 211.645 249.806 210.507 248.236 209.539C242.337 205.901 237.701 200.499 232.839 195.638C231.13 193.929 226.476 190.113 225.947 187.994C227.032 184.958 244.049 169.7 247.251 166.076C250.825 162.032 259.315 159.556 264.745 158.58Z" fill="url(#paint3_linear_17706_178133)"/>
<path d="M66.2225 158.583C74.183 157.62 82.423 160.418 88.377 165.651C91.848 168.701 94.875 172.063 98.0883 175.364C102.044 179.428 106.706 183.347 110.328 187.675C110.38 187.923 110.451 188.008 110.338 188.246C109.072 190.922 93.2983 206.258 90.3628 208.407C88.9483 209.443 87.3005 210.1 85.6558 210.668C77.005 215.4 64.782 213.369 56.7285 208.207C50.6815 204.332 45.537 196.891 44.4048 189.753C41.632 172.274 48.6573 161.387 66.2225 158.583Z" fill="url(#paint4_linear_17706_178133)"/>
</g>
<defs>
<linearGradient id="paint0_linear_17706_178133" x1="165.5" y1="0" x2="165.5" y2="331" gradientUnits="userSpaceOnUse">
<stop stop-color="#007AFF"/>
<stop offset="1" stop-color="#9747FF"/>
</linearGradient>
<linearGradient id="paint1_linear_17706_178133" x1="134.452" y1="105.893" x2="134.452" y2="213.407" gradientUnits="userSpaceOnUse">
<stop stop-color="#007AFF"/>
<stop offset="1" stop-color="#9747FF"/>
</linearGradient>
<linearGradient id="paint2_linear_17706_178133" x1="222.218" y1="105.928" x2="222.218" y2="181.893" gradientUnits="userSpaceOnUse">
<stop stop-color="#007AFF"/>
<stop offset="1" stop-color="#9747FF"/>
</linearGradient>
<linearGradient id="paint3_linear_17706_178133" x1="259.535" y1="158.516" x2="259.535" y2="213.425" gradientUnits="userSpaceOnUse">
<stop stop-color="#007AFF"/>
<stop offset="1" stop-color="#9747FF"/>
</linearGradient>
<linearGradient id="paint4_linear_17706_178133" x1="77.1083" y1="158.395" x2="77.1083" y2="213.334" gradientUnits="userSpaceOnUse">
<stop stop-color="#007AFF"/>
<stop offset="1" stop-color="#9747FF"/>
</linearGradient>
<clipPath id="clip0_17706_178133">
<rect width="331" height="331" fill="white"/>
</clipPath>
</defs>
</svg>
