<svg width="20" height="20" viewBox="0 0 20 20" fill="none" xmlns="http://www.w3.org/2000/svg">
<path d="M0 5.41992V3.57422C0 2.83854 0.143229 2.20378 0.429688 1.66992C0.716146 1.12956 1.1263 0.716146 1.66016 0.429688C2.19401 0.143229 2.83203 0 3.57422 0H5.45898C5.68034 0 5.86914 0.078125 6.02539 0.234375C6.18815 0.390625 6.26953 0.576172 6.26953 0.791016C6.26953 1.01237 6.18815 1.20443 6.02539 1.36719C5.86914 1.52344 5.68034 1.60156 5.45898 1.60156H3.57422C2.95573 1.60156 2.4707 1.77734 2.11914 2.12891C1.77409 2.47396 1.60156 2.95573 1.60156 3.57422V5.41992C1.60156 5.64128 1.52344 5.83008 1.36719 5.98633C1.21094 6.14258 1.01888 6.2207 0.791016 6.2207C0.576172 6.2207 0.390625 6.14258 0.234375 5.98633C0.078125 5.83008 0 5.64128 0 5.41992ZM19.1406 5.41992C19.1406 5.64128 19.0592 5.83008 18.8965 5.98633C18.7402 6.14258 18.5547 6.2207 18.3398 6.2207C18.1185 6.2207 17.9297 6.14258 17.7734 5.98633C17.6172 5.83008 17.5391 5.64128 17.5391 5.41992V3.57422C17.5391 2.95573 17.3633 2.47396 17.0117 2.12891C16.6667 1.77734 16.1849 1.60156 15.5664 1.60156H13.6719C13.4505 1.60156 13.2617 1.52344 13.1055 1.36719C12.9492 1.20443 12.8711 1.01237 12.8711 0.791016C12.8711 0.576172 12.9492 0.390625 13.1055 0.234375C13.2617 0.078125 13.4505 0 13.6719 0H15.5664C16.3021 0 16.9368 0.143229 17.4707 0.429688C18.0111 0.716146 18.4245 1.12956 18.7109 1.66992C18.9974 2.20378 19.1406 2.83854 19.1406 3.57422V5.41992ZM0 13.7109C0 13.4896 0.078125 13.3008 0.234375 13.1445C0.390625 12.9818 0.576172 12.9004 0.791016 12.9004C1.01888 12.9004 1.21094 12.9818 1.36719 13.1445C1.52344 13.3008 1.60156 13.4896 1.60156 13.7109V15.5566C1.60156 16.1686 1.77409 16.6504 2.11914 17.002C2.4707 17.3535 2.95573 17.5293 3.57422 17.5293H5.45898C5.68034 17.5293 5.86914 17.6074 6.02539 17.7637C6.18815 17.9264 6.26953 18.1185 6.26953 18.3398C6.26953 18.5547 6.18815 18.7402 6.02539 18.8965C5.86914 19.0527 5.68034 19.1309 5.45898 19.1309H3.57422C2.83203 19.1309 2.19401 18.9876 1.66016 18.7012C1.1263 18.4147 0.716146 18.0013 0.429688 17.4609C0.143229 16.9271 0 16.2923 0 15.5566V13.7109ZM19.1406 13.7109V15.5566C19.1406 16.2923 18.9974 16.9271 18.7109 17.4609C18.4245 18.0013 18.0111 18.4147 17.4707 18.7012C16.9368 18.9876 16.3021 19.1309 15.5664 19.1309H13.6719C13.4505 19.1309 13.2617 19.0527 13.1055 18.8965C12.9492 18.7402 12.8711 18.5547 12.8711 18.3398C12.8711 18.1185 12.9492 17.9264 13.1055 17.7637C13.2617 17.6074 13.4505 17.5293 13.6719 17.5293H15.5664C16.1849 17.5293 16.6667 17.3535 17.0117 17.002C17.3633 16.6504 17.5391 16.1686 17.5391 15.5566V13.7109C17.5391 13.4896 17.6172 13.3008 17.7734 13.1445C17.9297 12.9818 18.1185 12.9004 18.3398 12.9004C18.5547 12.9004 18.7402 12.9818 18.8965 13.1445C19.0592 13.3008 19.1406 13.4896 19.1406 13.7109ZM5.3125 14.2383C5.19531 14.2383 5.0944 14.1992 5.00977 14.1211C4.92513 14.0365 4.88281 13.9323 4.88281 13.8086V10.4102C4.88281 10.2865 4.92513 10.1855 5.00977 10.1074C5.0944 10.0228 5.19531 9.98047 5.3125 9.98047H8.71094C8.83464 9.98047 8.93555 10.0228 9.01367 10.1074C9.09831 10.1855 9.14062 10.2865 9.14062 10.4102V13.8086C9.14062 13.9323 9.09831 14.0365 9.01367 14.1211C8.93555 14.1992 8.83464 14.2383 8.71094 14.2383H5.3125ZM5.73242 13.3887H8.29102V10.8301H5.73242V13.3887ZM6.48438 12.6367V11.5723H7.54883V12.6367H6.48438ZM5.3125 9.13086C5.19531 9.13086 5.0944 9.0918 5.00977 9.01367C4.92513 8.92904 4.88281 8.82812 4.88281 8.71094V5.30273C4.88281 5.18555 4.92513 5.08464 5.00977 5C5.0944 4.91536 5.19531 4.87305 5.3125 4.87305H8.71094C8.83464 4.87305 8.93555 4.91536 9.01367 5C9.09831 5.08464 9.14062 5.18555 9.14062 5.30273V8.71094C9.14062 8.82812 9.09831 8.92904 9.01367 9.01367C8.93555 9.0918 8.83464 9.13086 8.71094 9.13086H5.3125ZM5.73242 8.28125H8.29102V5.72266H5.73242V8.28125ZM6.48438 7.53906V6.46484H7.54883V7.53906H6.48438ZM10.4102 9.13086C10.293 9.13086 10.1921 9.0918 10.1074 9.01367C10.0228 8.92904 9.98047 8.82812 9.98047 8.71094V5.30273C9.98047 5.18555 10.0228 5.08464 10.1074 5C10.1921 4.91536 10.293 4.87305 10.4102 4.87305H13.8184C13.9355 4.87305 14.0332 4.91536 14.1113 5C14.196 5.08464 14.2383 5.18555 14.2383 5.30273V8.71094C14.2383 8.82812 14.196 8.92904 14.1113 9.01367C14.0332 9.0918 13.9355 9.13086 13.8184 9.13086H10.4102ZM10.8301 8.28125H13.3887V5.72266H10.8301V8.28125ZM11.582 7.53906V6.46484H12.6465V7.53906H11.582ZM10.1074 14.1113V13.0469H11.1719V14.1113H10.1074ZM13.0469 14.1113V13.0469H14.1211V14.1113H13.0469ZM11.582 12.6367V11.5723H12.6465V12.6367H11.582ZM10.1074 11.1621V10.0977H11.1719V11.1621H10.1074ZM13.0469 11.1621V10.0977H14.1211V11.1621H13.0469Z" fill="currentColor"/>
</svg>
