<svg width="27" height="22" viewBox="0 0 27 22" fill="none" xmlns="http://www.w3.org/2000/svg">
<path d="M3.38379 19.7979C2.25944 19.7979 1.41439 19.5186 0.848633 18.96C0.282878 18.4014 0 17.5671 0 16.457V3.34082C0 2.23079 0.282878 1.39648 0.848633 0.837891C1.41439 0.279297 2.25944 0 3.38379 0H18.0684C19.1999 0 20.0449 0.279297 20.6035 0.837891C21.1693 1.39648 21.4521 2.23079 21.4521 3.34082V9.46387C21.3089 9.44238 21.1621 9.42806 21.0117 9.4209C20.8685 9.41374 20.7253 9.41016 20.582 9.41016C20.4316 9.41016 20.2848 9.41732 20.1416 9.43164C19.9984 9.4388 19.8444 9.44954 19.6797 9.46387V6.43457C19.6797 5.94043 19.5508 5.56803 19.293 5.31738C19.0423 5.05957 18.6771 4.93066 18.1973 4.93066H3.2334C2.7679 4.93066 2.40625 5.05957 2.14844 5.31738C1.89062 5.56803 1.76172 5.94043 1.76172 6.43457V16.543C1.76172 17.0299 1.89062 17.3988 2.14844 17.6494C2.40625 17.9072 2.7679 18.0361 3.2334 18.0361H13.8682C13.9326 18.3512 14.0257 18.6556 14.1475 18.9492C14.2692 19.2428 14.4089 19.5257 14.5664 19.7979H3.38379ZM8.62598 8.77637C8.43978 8.77637 8.30729 8.74414 8.22852 8.67969C8.1569 8.60807 8.12109 8.47917 8.12109 8.29297V7.65918C8.12109 7.47298 8.1569 7.34408 8.22852 7.27246C8.30729 7.20085 8.43978 7.16504 8.62598 7.16504H9.25977C9.44596 7.16504 9.57487 7.20085 9.64648 7.27246C9.72526 7.34408 9.76465 7.47298 9.76465 7.65918V8.29297C9.76465 8.47917 9.72526 8.60807 9.64648 8.67969C9.57487 8.74414 9.44596 8.77637 9.25977 8.77637H8.62598ZM12.2031 8.77637C12.0026 8.77637 11.8665 8.74414 11.7949 8.67969C11.7233 8.60807 11.6875 8.47917 11.6875 8.29297V7.65918C11.6875 7.47298 11.7233 7.34408 11.7949 7.27246C11.8665 7.20085 12.0026 7.16504 12.2031 7.16504H12.8262C13.0195 7.16504 13.152 7.20085 13.2236 7.27246C13.2952 7.34408 13.3311 7.47298 13.3311 7.65918V8.29297C13.3311 8.47917 13.2952 8.60807 13.2236 8.67969C13.152 8.74414 13.0195 8.77637 12.8262 8.77637H12.2031ZM15.7588 8.77637C15.5654 8.77637 15.4329 8.74414 15.3613 8.67969C15.2897 8.60807 15.2539 8.47917 15.2539 8.29297V7.65918C15.2539 7.47298 15.2897 7.34408 15.3613 7.27246C15.4329 7.20085 15.5654 7.16504 15.7588 7.16504H16.3926C16.5788 7.16504 16.7077 7.20085 16.7793 7.27246C16.8509 7.34408 16.8867 7.47298 16.8867 7.65918V8.29297C16.8867 8.47917 16.8509 8.60807 16.7793 8.67969C16.7077 8.74414 16.5788 8.77637 16.3926 8.77637H15.7588ZM5.05957 12.2891C4.86621 12.2891 4.73372 12.2568 4.66211 12.1924C4.59049 12.1208 4.55469 11.9919 4.55469 11.8057V11.1719C4.55469 10.9857 4.59049 10.8604 4.66211 10.7959C4.73372 10.7243 4.86621 10.6885 5.05957 10.6885H5.69336C5.88672 10.6885 6.01921 10.7243 6.09082 10.7959C6.16243 10.8604 6.19824 10.9857 6.19824 11.1719V11.8057C6.19824 11.9919 6.16243 12.1208 6.09082 12.1924C6.01921 12.2568 5.88672 12.2891 5.69336 12.2891H5.05957ZM8.62598 12.2891C8.43978 12.2891 8.30729 12.2568 8.22852 12.1924C8.1569 12.1208 8.12109 11.9919 8.12109 11.8057V11.1719C8.12109 10.9857 8.1569 10.8604 8.22852 10.7959C8.30729 10.7243 8.43978 10.6885 8.62598 10.6885H9.25977C9.44596 10.6885 9.57487 10.7243 9.64648 10.7959C9.72526 10.8604 9.76465 10.9857 9.76465 11.1719V11.8057C9.76465 11.9919 9.72526 12.1208 9.64648 12.1924C9.57487 12.2568 9.44596 12.2891 9.25977 12.2891H8.62598ZM12.2031 12.2891C12.0026 12.2891 11.8665 12.2568 11.7949 12.1924C11.7233 12.1208 11.6875 11.9919 11.6875 11.8057V11.1719C11.6875 10.9857 11.7233 10.8604 11.7949 10.7959C11.8665 10.7243 12.0026 10.6885 12.2031 10.6885H12.8262C13.0195 10.6885 13.152 10.7243 13.2236 10.7959C13.2952 10.8604 13.3311 10.9857 13.3311 11.1719V11.8057C13.3311 11.9919 13.2952 12.1208 13.2236 12.1924C13.152 12.2568 13.0195 12.2891 12.8262 12.2891H12.2031ZM5.05957 15.8018C4.86621 15.8018 4.73372 15.766 4.66211 15.6943C4.59049 15.6227 4.55469 15.4938 4.55469 15.3076V14.6738C4.55469 14.4876 4.59049 14.3623 4.66211 14.2979C4.73372 14.2262 4.86621 14.1904 5.05957 14.1904H5.69336C5.88672 14.1904 6.01921 14.2262 6.09082 14.2979C6.16243 14.3623 6.19824 14.4876 6.19824 14.6738V15.3076C6.19824 15.4938 6.16243 15.6227 6.09082 15.6943C6.01921 15.766 5.88672 15.8018 5.69336 15.8018H5.05957ZM8.62598 15.8018C8.43978 15.8018 8.30729 15.766 8.22852 15.6943C8.1569 15.6227 8.12109 15.4938 8.12109 15.3076V14.6738C8.12109 14.4876 8.1569 14.3623 8.22852 14.2979C8.30729 14.2262 8.43978 14.1904 8.62598 14.1904H9.25977C9.44596 14.1904 9.57487 14.2262 9.64648 14.2979C9.72526 14.3623 9.76465 14.4876 9.76465 14.6738V15.3076C9.76465 15.4938 9.72526 15.6227 9.64648 15.6943C9.57487 15.766 9.44596 15.8018 9.25977 15.8018H8.62598ZM12.2031 15.8018C12.0026 15.8018 11.8665 15.766 11.7949 15.6943C11.7233 15.6227 11.6875 15.4938 11.6875 15.3076V14.6738C11.6875 14.4876 11.7233 14.3623 11.7949 14.2979C11.8665 14.2262 12.0026 14.1904 12.2031 14.1904H12.8262C13.0195 14.1904 13.152 14.2262 13.2236 14.2979C13.2952 14.3623 13.3311 14.4876 13.3311 14.6738V15.3076C13.3311 15.4938 13.2952 15.6227 13.2236 15.6943C13.152 15.766 13.0195 15.8018 12.8262 15.8018H12.2031ZM20.582 21.8174C19.8301 21.8174 19.1247 21.6742 18.4658 21.3877C17.807 21.1012 17.2269 20.7074 16.7256 20.2061C16.2243 19.7048 15.8304 19.1247 15.5439 18.4658C15.2575 17.807 15.1143 17.1016 15.1143 16.3496C15.1143 15.5977 15.2575 14.8958 15.5439 14.2441C15.8304 13.5853 16.2243 13.0016 16.7256 12.4932C17.2269 11.9847 17.807 11.5908 18.4658 11.3115C19.1247 11.0251 19.8301 10.8818 20.582 10.8818C21.334 10.8818 22.0394 11.0251 22.6982 11.3115C23.3571 11.5908 23.9372 11.9847 24.4385 12.4932C24.9398 12.9945 25.3301 13.5745 25.6094 14.2334C25.8958 14.8923 26.0391 15.5977 26.0391 16.3496C26.0391 17.0944 25.8958 17.7962 25.6094 18.4551C25.3229 19.1139 24.9255 19.694 24.417 20.1953C23.9157 20.7038 23.3356 21.1012 22.6768 21.3877C22.0179 21.6742 21.3197 21.8174 20.582 21.8174ZM20.582 19.7764C20.7826 19.7764 20.9401 19.7119 21.0547 19.583C21.1764 19.4613 21.2373 19.3037 21.2373 19.1104V17.0156H23.3428C23.5361 17.0156 23.6937 16.9548 23.8154 16.833C23.9372 16.7113 23.998 16.5501 23.998 16.3496C23.998 16.1491 23.9372 15.988 23.8154 15.8662C23.6937 15.7445 23.5361 15.6836 23.3428 15.6836H21.2373V13.5889C21.2373 13.3955 21.1764 13.238 21.0547 13.1162C20.9401 12.9873 20.7826 12.9229 20.582 12.9229C20.3743 12.9229 20.2096 12.9873 20.0879 13.1162C19.9733 13.238 19.916 13.3955 19.916 13.5889V15.6836H17.8213C17.6208 15.6836 17.4596 15.7445 17.3379 15.8662C17.2161 15.988 17.1553 16.1491 17.1553 16.3496C17.1553 16.5501 17.2161 16.7113 17.3379 16.833C17.4596 16.9548 17.6208 17.0156 17.8213 17.0156H19.916V19.1104C19.916 19.3037 19.9733 19.4613 20.0879 19.583C20.2096 19.7119 20.3743 19.7764 20.582 19.7764Z" fill="black"/>
</svg>
