<svg width="11" height="14" viewBox="0 0 11 14" fill="none" xmlns="http://www.w3.org/2000/svg">
<path d="M4.98926 13.73C3.98633 13.73 3.11035 13.5501 2.36133 13.1904C1.61654 12.8307 1.03678 12.3271 0.62207 11.6797C0.207357 11.0322 0 10.2747 0 9.40723C0 8.9502 0.0359701 8.54395 0.10791 8.18848C0.184082 7.83301 0.275065 7.51351 0.380859 7.22998C0.490885 6.94222 0.600911 6.67139 0.710938 6.41748C0.820964 6.16357 0.911947 5.91178 0.983887 5.66211C1.05583 5.41243 1.0918 5.14583 1.0918 4.8623C1.0918 4.72266 1.08333 4.57031 1.06641 4.40527C1.05371 4.236 1.04736 4.11117 1.04736 4.03076C1.04736 3.89111 1.08757 3.77686 1.16797 3.68799C1.24837 3.59912 1.35417 3.55469 1.48535 3.55469C1.70964 3.55469 1.93604 3.6224 2.16455 3.75781C2.3973 3.89323 2.60465 4.08154 2.78662 4.32275C2.97282 4.55973 3.11458 4.8348 3.21191 5.14795L2.89453 5.21143C2.99609 5.03369 3.05957 4.87712 3.08496 4.7417C3.11458 4.60205 3.12939 4.46029 3.12939 4.31641C3.12516 3.89746 3.04688 3.49967 2.89453 3.12305C2.74642 2.74642 2.55599 2.38883 2.32324 2.05029C2.09473 1.71175 1.85563 1.39225 1.60596 1.0918C1.53825 1.01562 1.48747 0.937337 1.45361 0.856934C1.41976 0.77653 1.40283 0.696126 1.40283 0.615723C1.40283 0.412598 1.48958 0.260254 1.66309 0.158691C1.84082 0.0528971 2.07992 0 2.38037 0C2.93896 0 3.52718 0.0677083 4.14502 0.203125C4.76709 0.33431 5.38281 0.541667 5.99219 0.825195C6.60579 1.10449 7.18766 1.46208 7.73779 1.89795C8.28792 2.32959 8.77458 2.84375 9.19775 3.44043C9.62516 4.03288 9.96159 4.71208 10.207 5.47803C10.4525 6.24398 10.5752 7.10091 10.5752 8.04883C10.5752 8.89941 10.4419 9.67383 10.1753 10.3721C9.91292 11.0703 9.53418 11.6691 9.03906 12.1685C8.54395 12.6678 7.95361 13.0529 7.26807 13.3237C6.58675 13.5946 5.82715 13.73 4.98926 13.73ZM5.13525 11.9463C5.63883 11.9463 6.05566 11.8363 6.38574 11.6162C6.72005 11.3962 6.96973 11.1063 7.13477 10.7466C7.2998 10.3869 7.38232 9.99756 7.38232 9.57861C7.38232 9.1639 7.30192 8.74707 7.14111 8.32812C6.98454 7.90918 6.74967 7.52197 6.43652 7.1665C6.12337 6.81104 5.73405 6.52327 5.26855 6.30322C5.23893 6.29053 5.21566 6.29264 5.19873 6.30957C5.1818 6.32227 5.17546 6.34342 5.17969 6.37305C5.2347 6.89355 5.22624 7.37809 5.1543 7.82666C5.08236 8.271 4.96175 8.60742 4.79248 8.83594C4.71208 8.65397 4.62109 8.4847 4.51953 8.32812C4.4222 8.16732 4.29948 8.02132 4.15137 7.89014C4.13021 7.87321 4.10905 7.86898 4.08789 7.87744C4.07096 7.88167 4.06038 7.8986 4.05615 7.92822C4.03076 8.11019 3.97152 8.27734 3.87842 8.42969C3.78532 8.5778 3.68376 8.73438 3.57373 8.89941C3.4637 9.06022 3.36637 9.24219 3.28174 9.44531C3.20133 9.64421 3.16113 9.8833 3.16113 10.1626C3.16113 10.6958 3.34098 11.1274 3.70068 11.4575C4.06462 11.7834 4.54281 11.9463 5.13525 11.9463Z" fill="#FF9500"/>
</svg>
