<svg width="13" height="13" viewBox="0 0 13 13" fill="none" xmlns="http://www.w3.org/2000/svg">
<path d="M5.74219 12.6055H6.86328V7.66309C6.86328 7.40788 6.93848 7.21191 7.08887 7.0752C7.23926 6.93848 7.44661 6.87012 7.71094 6.87012H12.5986V5.74902H7.69043C7.07975 5.74902 6.60124 5.91309 6.25488 6.24121C5.91309 6.56934 5.74219 7.02507 5.74219 7.6084V12.6055ZM2.15332 12.5986C1.43783 12.5986 0.900065 12.4209 0.540039 12.0654C0.180013 11.71 0 11.1813 0 10.4795V2.12598C0 1.4196 0.180013 0.888672 0.540039 0.533203C0.900065 0.177734 1.43783 0 2.15332 0H10.4453C11.1654 0 11.7031 0.180013 12.0586 0.540039C12.4186 0.895508 12.5986 1.42415 12.5986 2.12598V10.4795C12.5986 11.1813 12.4186 11.71 12.0586 12.0654C11.7031 12.4209 11.1654 12.5986 10.4453 12.5986H2.15332Z" fill="black"/>
</svg>
