<svg width="22" height="22" viewBox="0 0 22 22" fill="none" xmlns="http://www.w3.org/2000/svg" aria-hidden="true">
  <path fill-rule="evenodd" clip-rule="evenodd" d="M11 7.5a3.5 3.5 0 1 0 0 7 3.5 3.5 0 0 0 0-7ZM9 11a2 2 0 1 1 4 0 2 2 0 0 1-4 0Z" fill="currentColor"/>
  <path fill-rule="evenodd" clip-rule="evenodd" d="M10.1 1.5h1.8c.38 0 .69.31.69.69v.9a.69.69 0 0 0 1.38 0v-.9A2.065 2.065 0 0 0 11 0c-.57 0-1.09.23-1.47.6l-.7.7a.69.69 0 1 0 .98.98l.7-.7c.17-.17.4-.27.64-.27h.01v.9a.69.69 0 0 0 1.38 0V2.19c.38 0 .69.31.69.69v.9a.69.69 0 0 0 1.38 0v-.9c0-.57-.23-1.09-.6-1.47l-.7-.7a.69.69 0 1 0-.98.98l.7.7c.17.17.27.4.27.64v.01h-.9a.69.69 0 0 0 0 1.38h.9c.57 0 1.09.23 1.47.6l.7.7a.69.69 0 1 0 .98-.98l-.7-.7a.69.69 0 0 0-.27-.64v-.01h.9a.69.69 0 0 0 0-1.38h-.9c-.57 0-1.09-.23-1.47-.6l-.7-.7a.69.69 0 1 0-.98.98l.7.7c-.17.17-.27.4-.27.64v.01h.9a.69.69 0 0 0 0 1.38h-.9a2.065 2.065 0 0 0-2.065 2.065v.9a.69.69 0 0 0 1.38 0v-.9c0-.57.23-1.09.6-1.47l.7-.7a.69.69 0 1 0-.98-.98l-.7.7a.69.69 0 0 0-.2.49v.01h.9a.69.69 0 0 0 0 1.38h-.9c-.38 0-.69.31-.69.69v.9a.69.69 0 0 0-1.38 0v-.9A2.065 2.065 0 0 0 11 22c.57 0 1.09-.23 1.47-.6l.7-.7a.69.69 0 1 0-.98-.98l-.7.7a.69.69 0 0 0-.49-.2h-.01v-.9a.69.69 0 0 0-1.38 0v.9A2.065 2.065 0 0 0 9 19.81c0 .57-.23 1.09-.6 1.47l-.7.7a.69.69 0 1 0 .98.98l.7-.7c.17-.17.4-.27.64-.27h.01v-.9a.69.69 0 0 0 1.38 0v.9c0 .57.23 1.09.6 1.47l.7.7a.69.69 0 1 0 .98-.98l-.7-.7a.69.69 0 0 0 .2-.49v-.01h-.9a.69.69 0 0 0 0-1.38h.9c.38 0 .69-.31.69-.69v-.9a.69.69 0 0 0-1.38 0v.9A2.065 2.065 0 0 0 2.19 11.69v-.9a.69.69 0 0 0-1.38 0v.9c0 .57.23 1.09.6 1.47l.7.7a.69.69 0 1 0 .98-.98l-.7-.7a.69.69 0 0 0 .27-.64v-.01h-.9a.69.69 0 0 0 0-1.38h.9c.57 0 1.09-.23 1.47-.6l.7-.7a.69.69 0 1 0-.98.98l-.7.7a.69.69 0 0 0-.64.27h.01v-.9a.69.69 0 0 0 1.38 0v.9c.38 0 .69.31.69.69v.9a.69.69 0 0 0 1.38 0v-.9A2.065 2.065 0 0 0 19.81 11v.9a.69.69 0 0 0 1.38 0v-.9c0-.57-.23-1.09-.6-1.47l-.7-.7a.69.69 0 1 0-.98.98l.7.7a.69.69 0 0 0 .49.2h.01v-.9a.69.69 0 0 0-1.38 0v.9c0 .38-.31.69-.69.69h-.9a.69.69 0 0 0 0 1.38h.9Z" fill="currentColor"/>
</svg>
